<svg xmlns="http://www.w3.org/2000/svg" xmlns:xlink="http://www.w3.org/1999/xlink" width="1000" zoomAndPan="magnify" viewBox="0 0 750 749.999995" height="1000" preserveAspectRatio="xMidYMid meet" version="1.0"><defs><clipPath id="d9da5b6c68"><path d="M 12.269531 12.269531 L 737.730469 12.269531 L 737.730469 737.730469 L 12.269531 737.730469 Z M 12.269531 12.269531 " clip-rule="nonzero"/></clipPath><clipPath id="fe92efa6fa"><path d="M 84.269531 12.269531 L 665.730469 12.269531 C 705.496094 12.269531 737.730469 44.503906 737.730469 84.269531 L 737.730469 665.730469 C 737.730469 705.496094 705.496094 737.730469 665.730469 737.730469 L 84.269531 737.730469 C 44.503906 737.730469 12.269531 705.496094 12.269531 665.730469 L 12.269531 84.269531 C 12.269531 44.503906 44.503906 12.269531 84.269531 12.269531 Z M 84.269531 12.269531 " clip-rule="nonzero"/></clipPath><clipPath id="e61761d71b"><path d="M 102.222656 102.222656 L 647.472656 102.222656 L 647.472656 647.472656 L 102.222656 647.472656 Z M 102.222656 102.222656 " clip-rule="nonzero"/></clipPath></defs><rect x="-75" width="900" fill="#ffffff" y="-74.999999" height="899.999994" fill-opacity="1"/><rect x="-75" width="900" fill="#ffffff" y="-74.999999" height="899.999994" fill-opacity="1"/><g clip-path="url(#d9da5b6c68)"><g clip-path="url(#fe92efa6fa)"><path fill="#004aad" d="M 12.269531 12.269531 L 737.730469 12.269531 L 737.730469 737.730469 L 12.269531 737.730469 Z M 12.269531 12.269531 " fill-opacity="1" fill-rule="nonzero"/></g></g><path fill="#ffffff" d="M 341.476562 516.566406 C 341.476562 496.746094 355.671875 482.417969 374.988281 482.417969 C 395.433594 482.417969 408.496094 496.746094 408.496094 516.566406 C 408.496094 535.847656 395.433594 550.714844 374.988281 550.714844 C 355.105469 550.714844 341.476562 535.847656 341.476562 516.566406 Z M 353.144531 433.574219 L 337.371094 237.5625 C 336.585938 227.757812 353.808594 219.765625 374.988281 219.765625 C 396.179688 219.765625 413.386719 227.804688 412.605469 237.5625 L 396.828125 433.574219 C 396.289062 440.230469 386.707031 445.476562 374.988281 445.476562 C 363.292969 445.476562 353.683594 440.230469 353.144531 433.574219 Z M 353.144531 433.574219 " fill-opacity="1" fill-rule="nonzero"/><g clip-path="url(#e61761d71b)"><path fill="#ffffff" d="M 374.988281 647.753906 C 224.582031 647.753906 102.222656 525.390625 102.222656 374.988281 C 102.222656 224.582031 224.582031 102.222656 374.988281 102.222656 C 525.390625 102.222656 647.753906 224.582031 647.753906 374.988281 C 647.753906 525.390625 525.390625 647.753906 374.988281 647.753906 Z M 374.988281 148.726562 C 250.222656 148.726562 148.726562 250.222656 148.726562 374.988281 C 148.726562 499.75 250.222656 601.25 374.988281 601.25 C 499.75 601.25 601.25 499.75 601.25 374.988281 C 601.25 250.222656 499.75 148.726562 374.988281 148.726562 Z M 374.988281 148.726562 " fill-opacity="1" fill-rule="nonzero"/></g></svg>